<svg width="229" height="44" viewBox="0 0 229 44" fill="none" xmlns="http://www.w3.org/2000/svg">
    <path d="M64.2442 16.9133C61.4885 16.9133 58.591 18.3556 57.1487 20.0941V12.1357H53.9551V27.2025C53.9551 32.8944 58.5652 37.5045 64.2571 37.5045C69.949 37.5045 74.5592 32.8944 74.5592 27.2025C74.5592 21.5106 69.949 16.9004 64.2571 16.9004L64.2442 16.9133ZM64.2442 34.3109C60.3295 34.3109 57.1487 31.1301 57.1487 27.2154C57.1487 23.3006 60.3295 20.1198 64.2442 20.1198C68.159 20.1198 71.3398 23.3006 71.3398 27.2154C71.3398 31.1301 68.159 34.3109 64.2442 34.3109Z"
          fill="black"/>
    <path d="M118.112 27.2276C118.112 21.5486 113.501 16.9385 107.822 16.9385C102.143 16.9385 97.5332 21.5486 97.5332 27.2276C97.5332 32.9066 102.143 37.5168 107.822 37.5168C110.758 37.5168 113.398 36.2806 115.278 34.3103L113.025 32.0567C111.724 33.4475 109.883 34.3232 107.835 34.3232C104.487 34.3232 101.667 31.9923 100.933 28.8631H117.983C118.073 28.3351 118.112 27.7814 118.112 27.2276ZM100.907 25.6695C101.615 22.5016 104.448 20.145 107.822 20.145C111.196 20.145 114.029 22.5145 114.738 25.6695H100.907Z"
          fill="black"/>
    <path d="M96.3225 27.2276C96.3225 21.5486 91.7123 16.9385 86.0333 16.9385C80.3543 16.9385 75.7441 21.5486 75.7441 27.2276C75.7441 32.9066 80.3543 37.5168 86.0333 37.5168C88.9694 37.5168 91.6093 36.2806 93.4894 34.3103L91.2358 32.0567C89.9352 33.4475 88.0937 34.3232 86.0462 34.3232C82.698 34.3232 79.8778 31.9923 79.1438 28.8631H96.1937C96.2838 28.3351 96.3225 27.7814 96.3225 27.2276ZM79.1181 25.6695C79.8263 22.5016 82.6594 20.145 86.0333 20.145C89.4072 20.145 92.2403 22.5145 92.9486 25.6695H79.1181Z"
          fill="black"/>
    <path d="M204.727 34.3488C200.812 34.3488 197.631 31.168 197.631 27.2532C197.631 23.3384 200.812 20.1577 204.727 20.1577C206.684 20.1577 208.461 20.9561 209.749 22.231L212.015 19.9645C210.148 18.0973 207.573 16.9512 204.74 16.9512C199.048 16.9512 194.438 21.5613 194.438 27.2532C194.438 32.9451 199.048 37.5553 204.74 37.5553C207.585 37.5553 210.161 36.3963 212.015 34.5419L209.749 32.2755C208.461 33.5632 206.684 34.3616 204.727 34.3616V34.3488Z"
          fill="black"/>
    <path d="M153.824 16.9141C148.132 16.9141 143.521 21.5242 143.521 27.2161C143.521 32.908 148.132 37.5182 153.824 37.5182C159.515 37.5182 164.126 32.908 164.126 27.2161C164.126 21.5242 159.515 16.9141 153.824 16.9141ZM153.824 34.3245C149.896 34.3245 146.715 31.1438 146.715 27.2161C146.715 23.2885 149.896 20.1077 153.824 20.1077C157.751 20.1077 160.932 23.2885 160.932 27.2161C160.932 31.1438 157.751 34.3245 153.824 34.3245Z"
          fill="black"/>
    <path d="M143.417 17.2347C142.799 17.0415 142.052 16.9385 141.292 16.9385C139.27 16.9385 137.107 18.2134 135.935 20.1064V16.9385H132.729V37.5039H135.987V23.6863C137.158 21.4843 139.257 19.9389 141.086 19.9389C141.82 19.9389 142.606 20.0806 143.159 20.2995L143.34 20.3639L143.52 17.2475L143.417 17.2218V17.2347Z"
          fill="black"/>
    <path d="M182.398 19.3737C180.905 17.764 178.818 16.9141 176.346 16.9141C173.539 16.9141 170.86 18.1503 169.457 20.1077V16.9398H166.25V37.5053H169.521V23.5074C170.719 21.4212 173.152 20.0819 175.741 20.0819C177.415 20.0819 178.844 20.6614 179.862 21.7689C180.892 22.8764 181.433 24.4474 181.433 26.3018V37.5053H184.704V25.8897C184.704 23.2241 183.918 20.9576 182.424 19.3608L182.398 19.3737Z"
          fill="black"/>
    <path d="M221.943 25.631C219.419 25.0129 217.243 24.4849 217.243 22.5662C217.243 20.789 218.763 20.1065 221.093 20.1065C222.883 20.1065 225.382 20.4156 226.747 21.8965L226.863 22.0253L228.382 19.5786L228.318 19.5013C226.85 17.9174 224.171 16.9258 221.338 16.9258C216.973 16.9258 214.049 19.2695 214.049 22.7722C214.049 26.8415 217.629 27.6914 220.797 28.4254C223.463 29.0436 225.755 29.5844 225.755 31.7865C225.755 33.5765 223.991 34.3362 221.467 34.3362C219.175 34.3362 216.535 33.7954 215.041 32.3016L214.925 32.1857L213.457 34.6453L213.534 34.7226C215.427 36.461 218.557 37.5685 221.506 37.5685C223.669 37.5685 225.536 37.0019 226.914 35.9202C228.266 34.8642 229 33.3704 229 31.7221C229 27.3824 225.253 26.468 221.956 25.6568L221.943 25.631Z"
          fill="black"/>
    <path d="M130.59 34.2988L130.423 34.3503C130.075 34.4662 129.573 34.5435 129.173 34.5435C128.027 34.5435 126.997 34.1443 126.263 33.4231C125.49 32.6505 125.078 31.543 125.078 30.2166V20.0949H130.59V16.927H125.078V12.1494H121.923V16.927H118.021V20.0949H121.923V30.3325C121.923 32.5346 122.593 34.3632 123.868 35.6381C125.091 36.8614 126.804 37.5053 128.813 37.5053C129.431 37.5053 130.088 37.3894 130.616 37.2091V34.7238L130.577 34.2988H130.59Z"
          fill="black"/>
    <path d="M189.109 16.9385H185.902V20.1064H189.109V37.5426H192.315V20.7889V16.9385H189.109Z" fill="black"/>
    <path d="M18.402 6.45689C13.4828 6.45689 8.29315 9.04528 5.71764 12.1488V0.739258H0V24.8589C0 35.0193 8.24164 43.261 18.402 43.261C28.5624 43.261 36.8041 35.0193 36.8041 24.8589C36.8041 14.6985 28.5624 6.45689 18.402 6.45689ZM18.402 37.5562C11.3966 37.5562 5.71764 31.8772 5.71764 24.8718C5.71764 17.8664 11.3966 12.1874 18.402 12.1874C25.4074 12.1874 31.0864 17.8664 31.0864 24.8718C31.0864 31.8772 25.4074 37.5562 18.402 37.5562Z"
          fill="black"/>
    <path d="M42.5181 0.739258H31.0957V6.4569H36.8005V12.1745H42.5181V0.739258Z" fill="black"/>
</svg>
