<svg width="179" height="36" viewBox="0 0 179 36" fill="none" xmlns="http://www.w3.org/2000/svg">
    <path d="M58.4429 17.6C57.8029 17.24 57.1078 16.965 56.3728 16.765C55.6328 16.57 54.8827 16.415 54.1227 16.31C53.3627 16.205 52.6626 16.095 52.0326 15.985C51.4026 15.875 50.8925 15.71 50.4975 15.48C50.1025 15.25 49.9125 14.92 49.9125 14.485C49.9125 14.005 50.1725 13.615 50.6975 13.31C51.2176 13.005 52.0676 12.855 53.2427 12.855C54.0277 12.855 54.8477 12.955 55.7078 13.15C56.5678 13.345 57.4129 13.685 58.2379 14.16L59.968 10.535C59.1179 10.055 58.0779 9.68 56.8528 9.41C55.6228 9.14 54.3977 9 53.1827 9C51.4876 9 50.0375 9.24 48.8424 9.72C47.6474 10.2 46.7223 10.87 46.0673 11.725C45.4123 12.585 45.0872 13.57 45.0872 14.68C45.0872 15.68 45.2773 16.495 45.6573 17.13C46.0373 17.76 46.5473 18.255 47.1924 18.615C47.8324 18.975 48.5324 19.25 49.2825 19.445C50.0325 19.64 50.7875 19.795 51.5526 19.9C52.3126 20.01 53.0026 20.12 53.6227 20.225C54.2427 20.33 54.7427 20.49 55.1227 20.7C55.5028 20.905 55.6928 21.215 55.6928 21.63C55.6928 22.13 55.4478 22.525 54.9577 22.805C54.4677 23.09 53.6377 23.23 52.4626 23.23C51.3976 23.23 50.3125 23.075 49.2125 22.755C48.1124 22.44 47.1524 22.045 46.3223 21.565L44.6572 25.19C45.4823 25.735 46.5823 26.185 47.9524 26.545C49.3225 26.905 50.7575 27.085 52.2626 27.085C54.0277 27.085 55.5228 26.845 56.7528 26.365C57.9829 25.885 58.9229 25.23 59.578 24.39C60.233 23.555 60.558 22.6 60.558 21.535C60.558 20.535 60.368 19.72 59.988 19.085C59.598 18.455 59.0879 17.96 58.4429 17.6Z"
          fill="#1E4BF2"/>
    <path d="M76.1835 10.16C74.7234 9.39 73.0583 9 71.1882 9C69.3382 9 67.6881 9.385 66.243 10.16C64.7979 10.93 63.6579 12 62.8328 13.36C62.0078 14.72 61.5928 16.28 61.5928 18.045C61.5928 19.785 62.0078 21.335 62.8328 22.695C63.6579 24.055 64.7979 25.125 66.243 25.91C67.6881 26.695 69.3382 27.085 71.1882 27.085C73.0583 27.085 74.7234 26.695 76.1835 25.91C77.6436 25.125 78.7836 24.06 79.6087 22.71C80.4337 21.36 80.8487 19.805 80.8487 18.045C80.8487 16.285 80.4337 14.72 79.6087 13.36C78.7836 12 77.6436 10.93 76.1835 10.16ZM75.0884 20.655C74.6834 21.395 74.1534 21.955 73.4884 22.335C72.8233 22.715 72.0583 22.905 71.1882 22.905C70.3632 22.905 69.6082 22.715 68.9381 22.335C68.2631 21.955 67.7231 21.395 67.3231 20.655C66.918 19.915 66.718 19.045 66.718 18.045C66.718 17.025 66.918 16.15 67.3231 15.435C67.7231 14.715 68.2631 14.165 68.9381 13.785C69.6132 13.405 70.3732 13.215 71.2233 13.215C72.0733 13.215 72.8283 13.405 73.4934 13.785C74.1584 14.165 74.6884 14.715 75.0934 15.435C75.4935 16.155 75.6985 17.025 75.6985 18.045C75.6935 19.045 75.4935 19.915 75.0884 20.655Z"
          fill="#1E4BF2"/>
    <path d="M98.2646 10.125C96.9495 9.375 95.4494 9 93.7743 9C92.2743 9 90.9592 9.32501 89.8391 9.98001C89.2491 10.325 88.7341 10.765 88.2891 11.3V9.26001H83.4238V33.15H88.5141V24.945C88.9291 25.405 89.3941 25.79 89.9192 26.1C91.0292 26.755 92.3143 27.08 93.7693 27.08C95.4444 27.08 96.9395 26.705 98.2596 25.955C99.5746 25.205 100.62 24.16 101.395 22.82C102.165 21.48 102.555 19.89 102.555 18.04C102.555 16.21 102.17 14.625 101.395 13.275C100.625 11.93 99.5796 10.88 98.2646 10.125ZM96.7945 20.635C96.3895 21.365 95.8594 21.925 95.1944 22.315C94.5294 22.705 93.7743 22.9 92.9243 22.9C92.0743 22.9 91.3142 22.705 90.6392 22.315C89.9642 21.925 89.4241 21.365 89.0241 20.635C88.6191 19.905 88.4191 19.04 88.4191 18.04C88.4191 17.02 88.6191 16.145 89.0241 15.43C89.4241 14.71 89.9642 14.16 90.6392 13.78C91.3142 13.4 92.0743 13.21 92.9243 13.21C93.7743 13.21 94.5294 13.4 95.1944 13.78C95.8594 14.16 96.3895 14.71 96.7945 15.43C97.1945 16.15 97.3995 17.02 97.3995 18.04C97.3995 19.045 97.1995 19.91 96.7945 20.635Z"
          fill="#1E4BF2"/>
    <path d="M110 11.57V9.26001H105.135V26.82H110.225V18.53C110.225 16.855 110.65 15.615 111.5 14.81C112.35 14.005 113.49 13.6 114.925 13.6C115.1 13.6 115.28 13.61 115.465 13.63C115.65 13.65 115.84 13.685 116.035 13.73V9C114.38 9 112.98 9.32001 111.825 9.96501C111.085 10.375 110.48 10.91 110 11.57Z"
          fill="#1E4BF2"/>
    <path d="M120.801 1.13501C119.841 1.13501 119.071 1.40501 118.486 1.95001C117.895 2.49501 117.605 3.17001 117.605 3.97501C117.605 4.78001 117.9 5.455 118.486 6C119.071 6.545 119.846 6.815 120.801 6.815C121.756 6.815 122.531 6.54 123.116 5.985C123.701 5.43 123.996 4.73 123.996 3.88C123.996 3.075 123.696 2.41501 123.101 1.90501C122.506 1.39001 121.736 1.13501 120.801 1.13501Z"
          fill="#1E4BF2"/>
    <path d="M123.346 9.26001H118.256V26.82H123.346V9.26001Z" fill="#1E4BF2"/>
    <path d="M153.457 9.83501C152.382 9.28001 151.147 9.005 149.752 9.005C148.057 9.005 146.562 9.41501 145.282 10.23C144.552 10.695 143.937 11.245 143.432 11.885C143.017 11.215 142.497 10.66 141.852 10.23C140.632 9.41501 139.216 9.005 137.606 9.005C136.191 9.005 134.916 9.31501 133.786 9.93501C133.141 10.29 132.591 10.75 132.121 11.295V9.265H127.256V26.825H132.346V18.01C132.346 16.945 132.511 16.08 132.836 15.415C133.161 14.75 133.621 14.25 134.206 13.915C134.791 13.58 135.456 13.41 136.196 13.41C137.281 13.41 138.116 13.75 138.691 14.42C139.266 15.095 139.556 16.14 139.556 17.555V26.825H144.647V18.01C144.647 16.945 144.807 16.08 145.122 15.415C145.437 14.75 145.887 14.25 146.477 13.915C147.067 13.58 147.737 13.41 148.502 13.41C149.547 13.41 150.357 13.75 150.932 14.42C151.507 15.09 151.797 16.14 151.797 17.555V26.825H156.887V16.77C156.887 14.985 156.582 13.52 155.972 12.38C155.377 11.235 154.537 10.39 153.457 9.83501Z"
          fill="#1E4BF2"/>
    <path d="M176.814 13.245C176.009 11.895 174.914 10.85 173.534 10.11C172.153 9.37 170.603 9 168.883 9C167.098 9 165.493 9.385 164.068 10.16C162.643 10.93 161.533 12.005 160.738 13.375C159.943 14.745 159.548 16.3 159.548 18.04C159.548 19.78 159.963 21.33 160.788 22.69C161.613 24.05 162.778 25.12 164.278 25.905C165.778 26.69 167.528 27.08 169.533 27.08C171.123 27.08 172.524 26.835 173.744 26.345C174.964 25.855 175.974 25.155 176.779 24.24L174.069 21.305C173.484 21.87 172.834 22.295 172.128 22.575C171.418 22.86 170.608 23 169.698 23C168.633 23 167.718 22.81 166.958 22.43C166.198 22.05 165.598 21.5 165.163 20.78C164.923 20.385 164.758 19.95 164.648 19.475H177.924C177.944 19.26 177.969 19.025 177.989 18.775C178.009 18.525 178.024 18.3 178.024 18.105C178.019 16.215 177.619 14.595 176.814 13.245ZM166.613 13.425C167.278 13.045 168.043 12.855 168.913 12.855C169.783 12.855 170.543 13.045 171.198 13.425C171.853 13.805 172.363 14.335 172.734 15.01C172.979 15.455 173.129 15.96 173.204 16.51H164.588C164.673 15.965 164.828 15.465 165.063 15.025C165.433 14.34 165.948 13.805 166.613 13.425Z"
          fill="#1E4BF2"/>
    <path d="M0 24H16.0008L24.0012 36H8.00039L0 24Z" fill="url(#paint0_linear_104_3159)"/>
    <path d="M8.0004 24L16.0008 12H0L8.0004 24Z" fill="#1E4BF2"/>
    <path d="M16.0008 12L8.0004 0L0 12H16.0008Z" fill="#0810E6"/>
    <path d="M24.0014 36L32.0018 24H16.001L24.0014 36Z" fill="#D83B02"/>
    <path d="M32.0018 24L24.0014 12L16.001 24H32.0018Z" fill="#EB8C17"/>
    <path d="M32.0012 12H16.0004L8 0H24.0008L32.0012 12Z" fill="url(#paint1_linear_104_3159)"/>
    <defs>
        <linearGradient id="paint0_linear_104_3159" x1="31.8991" y1="30.0006" x2="0.105505" y2="30.0006"
                        gradientUnits="userSpaceOnUse">
            <stop stop-color="#EA5E17"/>
            <stop offset="1" stop-color="#EB8C17"/>
        </linearGradient>
        <linearGradient id="paint1_linear_104_3159" x1="32.0281" y1="6.0006" x2="0.159363" y2="6.0006"
                        gradientUnits="userSpaceOnUse">
            <stop stop-color="#A600F2"/>
            <stop offset="1" stop-color="#1E4BF2"/>
        </linearGradient>
    </defs>
</svg>
